<?xml version="1.0" standalone="no"?>
<!DOCTYPE svg PUBLIC "-//W3C//DTD SVG 20010904//EN"
 "http://www.w3.org/TR/2001/REC-SVG-20010904/DTD/svg10.dtd">
<svg version="1.0" xmlns="http://www.w3.org/2000/svg"
 width="260.000000pt" height="260.000000pt" viewBox="0 0 260.000000 260.000000"
 preserveAspectRatio="xMidYMid meet">
<metadata>
Created by potrace 1.14, written by Peter Selinger 2001-2017
</metadata>
<g transform="translate(0.000000,260.000000) scale(0.100000,-0.100000)"
fill="#000000" stroke="none">
<path d="M977 2564 c-1 -1 -26 -4 -56 -7 -79 -8 -83 -16 -62 -132 6 -33 13
-75 16 -94 3 -19 8 -39 12 -44 3 -5 45 -6 102 -2 53 4 118 8 144 10 67 5 177
16 207 20 14 2 52 7 85 10 33 4 63 10 68 14 4 4 1 39 -8 77 -8 38 -18 79 -21
92 -5 23 -7 23 -77 17 -82 -8 -119 -11 -232 -20 -44 -4 -98 -8 -120 -11 -37
-4 -39 -3 -21 11 11 8 17 15 13 15 -4 0 -2 11 3 24 8 22 6 24 -21 22 -17 0
-31 -1 -32 -2z"/>
<path d="M430 2386 c-119 -39 -221 -75 -228 -79 -23 -16 -11 -53 52 -162 56
-97 66 -110 87 -106 25 3 399 127 481 158 l46 18 -44 70 c-24 39 -50 84 -58
100 -23 50 -53 75 -89 74 -18 -1 -129 -33 -247 -73z"/>
<path d="M1679 2343 c-13 -16 -12 -17 4 -4 9 7 17 15 17 17 0 8 -8 3 -21 -13z"/>
<path d="M1818 2327 c21 -16 28 -27 20 -29 -10 -4 -10 -8 2 -23 14 -16 13 -17
-5 -12 -11 3 -53 16 -93 28 -41 12 -77 18 -82 13 -20 -21 -82 -176 -74 -183
12 -11 481 -148 570 -167 19 -3 27 9 69 110 38 93 45 117 36 134 -6 11 -19 23
-28 26 -10 3 -106 30 -213 60 -107 30 -204 58 -215 62 -11 4 -6 -4 13 -19z"/>
<path d="M1468 2295 c-1 -2 -30 -6 -63 -10 -33 -4 -73 -8 -90 -10 -98 -11
-244 -24 -345 -30 -25 -2 -53 -3 -63 -4 -15 -1 -17 -7 -11 -38 4 -21 3 -35 -1
-31 -3 3 -70 -16 -148 -43 -78 -28 -198 -69 -267 -91 -69 -22 -128 -42 -132
-45 -4 -2 -3 -12 3 -22 10 -14 -2 -36 -67 -132 -44 -63 -102 -148 -129 -189
-73 -108 -82 -118 -100 -99 -14 13 0 38 125 219 112 162 138 206 128 216 -35
32 -241 164 -257 164 -10 0 -25 -8 -34 -18 -15 -17 -17 -63 -16 -463 l1 -444
19 70 c10 39 21 81 24 95 7 37 33 132 37 135 2 2 11 -2 21 -10 17 -12 16 -17
-7 -106 -14 -52 -34 -137 -46 -189 -11 -52 -23 -102 -25 -111 -5 -16 17 -28
164 -89 41 -16 75 -29 77 -27 3 2 38 156 48 205 17 91 32 142 41 142 32 -1 32
-17 -1 -164 -51 -228 -60 -199 84 -261 89 -39 122 -49 123 -39 1 8 2 17 3 22
2 4 6 30 11 57 5 28 10 52 10 55 1 3 7 40 15 83 7 42 16 77 20 77 11 0 41 -36
35 -42 -3 -2 -10 -29 -15 -59 -6 -30 -12 -65 -15 -79 -3 -13 -7 -42 -10 -65
-3 -22 -8 -48 -11 -57 -3 -11 5 -23 23 -34 15 -10 30 -19 32 -21 6 -4 -24 -45
-69 -93 -23 -25 -72 -85 -110 -135 -37 -49 -83 -104 -101 -121 -19 -17 -112
-75 -206 -128 l-173 -97 0 -119 0 -119 425 -1 425 0 39 36 c22 19 66 69 98
111 56 74 61 78 178 134 67 32 132 66 145 77 14 11 79 43 145 72 153 67 189
83 194 86 1 2 -19 40 -47 86 -27 46 -59 99 -70 118 -10 19 -53 94 -94 165 -41
72 -77 139 -80 150 -3 11 -9 29 -13 40 -5 12 7 5 31 -20 22 -22 97 -139 168
-260 70 -122 134 -229 142 -240 13 -18 16 -17 81 15 38 18 92 44 121 56 28 13
52 26 52 29 0 2 -24 42 -53 87 -87 134 -227 368 -227 377 0 5 -34 40 -75 78
-69 65 -73 71 -57 86 15 16 15 17 -1 18 -9 1 -21 2 -25 3 -5 0 -68 21 -140 46
-103 35 -132 49 -132 62 0 10 3 18 8 18 6 1 321 -102 331 -107 2 -1 -2 -9 -9
-18 -11 -13 -2 -25 60 -83 40 -37 79 -80 87 -97 7 -16 18 -37 23 -45 5 -8 47
-76 93 -150 127 -205 157 -250 167 -250 5 0 61 25 124 56 l115 57 -88 131
c-134 200 -211 325 -209 334 2 5 -41 49 -96 97 -88 80 -97 90 -81 101 15 11
30 2 118 -77 56 -50 101 -98 102 -107 1 -10 67 -117 147 -239 l147 -222 121
60 121 61 -24 32 c-30 39 -145 207 -211 306 -27 41 -58 85 -69 98 -12 12 -15
22 -9 22 13 0 17 30 5 30 -5 0 -22 13 -39 28 -18 15 -42 36 -55 47 -152 128
-152 128 -123 139 10 4 59 -30 144 -102 120 -100 151 -132 114 -118 -8 3 -12
2 -9 -4 5 -9 217 -319 280 -412 30 -43 34 -45 56 -34 24 11 24 13 27 189 l2
178 -69 99 c-59 83 -68 101 -54 108 13 8 10 13 -18 33 -38 26 -199 157 -242
196 l-27 25 -63 -51 c-34 -28 -71 -51 -82 -51 -31 0 -361 93 -535 150 -30 10
-56 23 -58 29 -8 23 29 21 119 -8 154 -48 217 -67 363 -106 133 -35 140 -36
150 -18 9 15 76 173 76 179 0 1 -17 5 -37 9 -48 9 -431 118 -507 144 -56 20
-60 20 -72 3 -7 -9 -16 -17 -21 -18 -21 -1 -160 -16 -176 -19 -10 -2 -46 -6
-80 -9 -35 -4 -72 -8 -82 -10 -11 -2 -67 -7 -125 -11 -58 -4 -109 -8 -115 -9
-5 0 -11 9 -13 20 -3 19 2 22 30 21 18 0 65 3 103 7 39 3 95 9 125 12 30 2 71
7 90 9 74 9 126 16 150 20 14 2 48 6 76 10 l51 6 -14 57 c-31 129 -34 138 -53
139 -10 1 -20 0 -22 -2z m-524 -350 c8 -22 -20 -36 -194 -98 -239 -86 -270
-94 -280 -77 -12 20 -7 23 90 55 101 32 257 89 320 115 55 24 56 24 64 5z
m482 -132 c-4 -13 -17 -20 -39 -21 -18 -1 -44 -5 -57 -7 -14 -3 -50 -8 -80
-11 -30 -3 -71 -7 -90 -9 -125 -15 -178 -16 -185 -5 -12 20 8 29 75 34 73 5
152 13 285 30 50 7 92 11 93 10 2 -2 1 -11 -2 -21z m-906 -124 c10 -18 3 -34
-46 -112 -130 -206 -139 -218 -159 -203 -12 8 -15 18 -10 27 5 8 46 71 92 141
46 71 83 130 83 133 0 5 22 34 27 35 1 0 7 -9 13 -21z m470 -14 c0 -34 -40
-49 -135 -54 -16 -1 -17 -3 -6 -10 12 -8 9 -12 -15 -22 -16 -6 -42 -18 -59
-25 -16 -7 -43 -16 -59 -20 -16 -4 -41 -13 -55 -20 -22 -11 -28 -11 -44 3 -17
16 -17 17 0 24 217 80 350 132 358 140 13 13 15 12 15 -16z m456 -41 c142 -46
200 -63 358 -105 37 -10 38 -11 17 -25 -25 -18 -73 -7 -316 72 -156 50 -171
57 -161 73 10 15 12 15 102 -15z m-151 -93 c-4 -14 -15 -21 -33 -22 -15 0 -34
-2 -42 -3 -8 -2 -51 -7 -95 -11 -44 -4 -83 -9 -86 -11 -7 -4 -19 20 -19 35 0
4 10 7 23 8 74 3 240 23 246 29 9 9 12 -6 6 -25z m-251 -162 c-2 -4 -41 -21
-86 -39 -46 -18 -96 -39 -113 -46 -58 -24 -73 -26 -83 -7 -9 15 5 23 114 64
68 26 131 52 141 58 14 7 19 6 24 -7 4 -9 5 -20 3 -23z m-349 14 c10 -14 5
-29 -32 -92 -68 -116 -70 -118 -90 -99 -15 15 -12 22 33 95 27 42 52 85 56 95
9 22 17 23 33 1z m465 -118 c0 -6 -7 -20 -15 -31 -28 -37 -18 -48 65 -78 45
-16 90 -36 101 -45 19 -15 19 -16 -18 -15 -21 0 -71 13 -110 28 -40 15 -77 25
-83 21 -5 -3 -10 0 -11 7 0 7 -2 20 -4 28 -2 8 -6 32 -10 52 -6 36 -5 37 27
40 55 5 58 5 58 -7z m-288 -224 c-14 -23 -21 -27 -35 -20 -22 13 -21 17 4 58
20 33 21 33 35 13 13 -19 12 -24 -4 -51z m21 -81 c-7 -28 -13 -25 -13 6 0 14
4 23 9 20 5 -3 7 -15 4 -26z m191 -26 c3 -8 -23 -39 -62 -73 -60 -54 -68 -59
-79 -44 -19 25 -16 41 12 69 13 13 29 32 34 42 11 21 87 26 95 6z m31 -509
c-52 -22 -78 -28 -71 -16 7 11 60 29 86 29 8 0 2 -5 -15 -13z"/>
<path d="M1253 1793 c9 -2 25 -2 35 0 9 3 1 5 -18 5 -19 0 -27 -2 -17 -5z"/>
<path d="M425 1560 c-3 -5 -1 -10 4 -10 6 0 11 5 11 10 0 6 -2 10 -4 10 -3 0
-8 -4 -11 -10z"/>
<path d="M2330 1909 l-110 -90 62 -52 c35 -28 65 -54 68 -57 3 -3 45 -37 93
-75 49 -38 84 -71 78 -73 -6 -2 -11 -8 -11 -14 0 -10 80 -128 86 -128 2 0 4
112 4 249 l0 250 -57 40 c-31 23 -66 41 -79 41 -14 0 -66 -36 -134 -91z"/>
<path d="M187 1752 c-20 -22 -21 -32 -5 -32 6 0 8 3 5 7 -4 3 0 15 10 25 9 10
14 18 11 18 -3 0 -12 -8 -21 -18z"/>
</g>
</svg>
