<?xml version="1.0" standalone="no"?>
<!DOCTYPE svg PUBLIC "-//W3C//DTD SVG 20010904//EN"
 "http://www.w3.org/TR/2001/REC-SVG-20010904/DTD/svg10.dtd">
<svg version="1.0" xmlns="http://www.w3.org/2000/svg"
 width="260.000000pt" height="260.000000pt" viewBox="0 0 260.000000 260.000000"
 preserveAspectRatio="xMidYMid meet">
<metadata>
Created by potrace 1.14, written by Peter Selinger 2001-2017
</metadata>
<g transform="translate(0.000000,260.000000) scale(0.100000,-0.100000)"
fill="#000000" stroke="none">
<path d="M0 2063 l0 -538 34 35 c19 19 73 88 121 154 87 118 87 119 55 114
-30 -5 -28 -2 47 76 43 44 79 82 81 85 1 2 5 1 9 -3 4 -3 1 -12 -5 -18 -7 -7
-12 -18 -12 -26 0 -24 25 3 80 86 46 68 49 75 33 87 -15 11 -15 15 -3 29 30
37 44 36 109 -5 74 -47 74 -47 141 52 38 56 38 56 19 76 -20 19 -20 19 0 37
20 19 20 19 -3 37 -29 23 -35 23 -55 5 -14 -12 -23 -8 -71 36 -44 40 -50 49
-30 45 14 -4 152 -10 307 -13 l281 -7 21 -64 c36 -109 119 -218 236 -311 47
-37 44 -43 -4 -8 l-33 25 -59 -67 c-32 -36 -59 -69 -59 -73 0 -7 176 -167 373
-341 77 -68 118 -97 142 -101 19 -3 63 -19 100 -36 37 -17 68 -31 70 -31 9 0
355 413 355 424 0 3 -18 15 -41 27 -23 11 -38 16 -35 10 4 -5 2 -12 -4 -16 -5
-3 -10 -15 -10 -25 0 -10 -9 -22 -20 -25 -11 -3 -20 -14 -20 -24 0 -10 -6 -24
-14 -31 -8 -6 -12 -19 -9 -28 3 -9 -43 31 -103 91 -64 62 -118 107 -129 107
-13 0 -5 7 20 19 83 37 130 127 123 236 l-4 65 218 0 c196 0 218 2 227 18 6 9
11 13 11 9 0 -5 7 -1 16 7 18 19 45 21 42 4 -2 -7 4 -13 12 -13 8 0 21 -4 28
-8 9 -7 12 30 12 172 l0 181 -202 0 -203 -1 50 -44 c34 -30 44 -45 33 -45 -24
0 -23 -7 10 -37 l27 -25 -36 25 -36 26 -129 -40 c-71 -21 -135 -41 -142 -44
-11 -4 -9 -13 7 -39 12 -18 21 -37 21 -42 0 -5 -16 18 -36 51 -48 80 -58 92
-133 158 l-64 57 -298 0 c-268 0 -301 -2 -319 -17 -11 -10 -20 -28 -20 -40 0
-22 -4 -23 -66 -23 -71 0 -416 29 -423 36 -2 2 4 13 14 24 18 20 18 20 -318
20 l-337 0 0 -537z m2340 372 c11 -13 10 -14 -4 -9 -9 3 -16 10 -16 15 0 13 6
11 20 -6z m86 -72 c-6 -6 -55 29 -56 40 0 5 14 -1 31 -13 16 -12 28 -24 25
-27z m75 -10 c13 -16 12 -17 -3 -4 -10 7 -18 15 -18 17 0 8 8 3 21 -13z m-9
-33 c4 0 8 -5 8 -11 0 -6 -13 -1 -30 11 -16 12 -30 26 -30 31 0 5 10 1 22 -11
12 -11 25 -20 30 -20z m89 -27 c13 -16 12 -17 -3 -4 -17 13 -22 21 -14 21 2 0
10 -8 17 -17z m-1158 -318 c-3 -9 -8 -14 -10 -11 -3 3 -2 9 2 15 9 16 15 13 8
-4z m333 -88 c6 -8 65 -390 60 -394 -3 -4 -6 4 -6 16 0 17 -4 21 -15 17 -13
-5 -14 -2 -5 15 6 11 9 28 7 37 -4 13 -5 12 -6 -4 -1 -29 -35 -37 -57 -13 -10
11 -12 19 -6 19 7 0 12 4 12 9 0 4 -11 6 -25 3 -21 -4 -25 0 -26 19 0 13 -2
31 -3 39 -2 8 -7 69 -11 134 l-7 119 43 -7 c24 -4 44 -8 45 -9z"/>
<path d="M1733 1733 c-6 -12 -9 -23 -6 -23 14 0 43 23 43 34 0 21 -25 14 -37
-11z"/>
<path d="M1767 1693 c-4 -6 -16 -10 -26 -8 -14 3 -18 -1 -14 -16 3 -10 12 -19
19 -19 8 0 14 -4 14 -10 0 -5 7 -10 15 -10 16 0 17 10 6 50 -4 16 -9 21 -14
13z"/>
<path d="M1700 1626 c0 -17 16 -30 23 -19 3 5 -1 14 -9 21 -12 10 -14 10 -14
-2z"/>
<path d="M1815 2590 c-3 -5 11 -24 31 -43 l37 -34 64 38 c36 20 67 40 70 43 4
3 -39 6 -95 6 -55 0 -103 -4 -107 -10z"/>
<path d="M2290 2209 c0 -6 -7 -9 -14 -6 -11 4 -13 1 -9 -10 5 -12 1 -14 -15
-9 -11 4 -35 1 -54 -7 -18 -8 -50 -13 -72 -13 -23 1 -40 -3 -43 -11 -9 -22
-21 -14 -26 15 -4 26 -4 26 -6 -4 l-1 -31 167 -6 c91 -4 199 -7 240 -7 57 0
72 -3 67 -12 -4 -7 4 -3 18 10 13 12 30 22 36 22 7 0 -43 -64 -110 -142 -283
-332 -425 -497 -475 -552 l-53 -60 27 -22 c20 -15 32 -19 40 -12 7 5 16 7 22
4 5 -3 7 2 4 12 -6 25 22 49 31 27 3 -9 10 -14 16 -10 6 4 5 13 -2 25 -16 25
-3 38 22 22 12 -7 20 -8 20 -2 0 5 -4 10 -10 10 -5 0 -10 5 -10 10 0 6 7 10
16 10 8 0 12 5 9 10 -3 6 -1 10 5 10 6 0 9 4 6 8 -9 14 12 35 28 29 21 -8 21
-47 0 -47 -8 0 -12 -4 -9 -10 3 -5 -1 -10 -9 -10 -9 0 -16 -7 -16 -15 0 -7 -8
-19 -17 -24 -10 -6 -14 -11 -10 -11 4 0 -1 -10 -12 -22 -18 -18 -22 -19 -37
-7 -16 13 -16 12 -5 -10 13 -23 12 -23 -13 -19 -25 5 -25 4 -11 -12 8 -9 13
-19 10 -22 -3 -2 6 -15 20 -28 14 -13 25 -27 25 -32 0 -5 7 -20 16 -33 l16
-25 43 48 c51 57 367 431 413 489 l32 41 0 132 c0 117 -2 135 -20 158 -20 25
-20 26 -2 46 10 12 20 38 21 59 l2 37 -37 -37 c-20 -21 -29 -28 -19 -15 18 21
18 22 -3 22 -11 0 -24 4 -27 10 -4 6 1 7 12 4 10 -3 3 3 -15 15 -27 18 -48 21
-127 21 -63 0 -95 -4 -95 -11z m150 -419 c0 -16 -21 -22 -35 -10 -18 15 -20
-1 -3 -18 7 -7 8 -12 2 -12 -5 0 -15 5 -22 12 -9 9 -12 9 -12 1 0 -7 5 -15 10
-18 15 -9 12 -25 -6 -25 -8 0 -13 -4 -10 -8 3 -5 -3 -15 -13 -24 -10 -9 -21
-22 -23 -29 -4 -12 -7 -12 -21 0 -10 7 -17 18 -17 23 0 6 7 4 16 -3 15 -12 16
-11 9 10 -6 21 -5 23 15 18 17 -4 20 -3 11 6 -16 16 -14 27 5 27 8 0 13 4 10
9 -4 5 6 23 20 40 21 25 29 29 45 21 10 -6 19 -15 19 -20z m-137 -145 c7 -17
-41 -75 -62 -75 -8 0 -11 -3 -8 -6 9 -10 -12 -44 -26 -44 -7 0 -18 5 -24 11
-14 14 22 69 44 69 8 0 12 4 8 9 -9 15 14 24 30 11 18 -15 31 6 15 25 -10 12
-9 15 3 15 8 0 17 -7 20 -15z m-61 -183 c-7 -2 -10 -8 -7 -13 4 -5 -2 -6 -11
-2 -13 5 -15 3 -9 -7 6 -9 4 -11 -4 -6 -8 5 -11 2 -9 -9 2 -11 -4 -19 -15 -20
-16 -3 -15 -1 3 25 11 15 16 31 12 35 -4 5 1 5 11 2 9 -4 17 -2 17 4 0 6 5 7
12 3 9 -6 9 -9 0 -12z m-52 -76 c0 -2 -7 -9 -15 -16 -12 -10 -15 -10 -15 4 0
9 7 16 15 16 8 0 15 -2 15 -4z m-65 -77 c-4 -5 -12 -9 -18 -8 -9 0 -8 2 1 6 6
2 9 10 6 15 -4 7 -2 8 5 4 6 -4 9 -12 6 -17z"/>
<path d="M2243 1600 c-1 -11 3 -20 8 -20 6 0 7 5 4 10 -3 6 -1 10 5 10 6 0 8
5 5 10 -10 16 -21 11 -22 -10z"/>
<path d="M2205 1560 c3 -5 11 -10 16 -10 6 0 7 5 4 10 -3 6 -11 10 -16 10 -6
0 -7 -4 -4 -10z"/>
<path d="M681 2141 c-26 -35 -26 -43 -3 -57 12 -7 24 -7 40 2 20 10 21 12 7
18 -10 4 -15 12 -11 21 3 8 9 22 12 30 11 27 -24 16 -45 -14z"/>
<path d="M719 2044 c-11 -14 -11 -18 2 -28 101 -76 155 -120 214 -171 117
-103 403 -340 453 -375 72 -50 34 -17 -168 151 -102 84 -232 194 -290 243 -58
50 -121 103 -140 117 -32 24 -34 28 -22 53 11 24 10 26 -12 26 -13 0 -30 -7
-37 -16z"/>
<path d="M1110 1826 c0 -2 8 -10 18 -17 15 -13 16 -12 3 4 -13 16 -21 21 -21
13z"/>
<path d="M1001 1603 l-22 -18 25 -1 c18 -1 24 3 23 17 -2 23 0 23 -26 2z"/>
<path d="M1530 1533 c25 -23 49 -42 53 -43 4 0 -9 14 -30 32 -60 51 -73 57
-23 11z"/>
<path d="M1042 1542 c-1 -24 0 -25 9 -9 7 11 7 23 2 28 -5 5 -9 -3 -11 -19z"/>
<path d="M1094 1506 c-19 -14 -19 -14 1 -13 11 1 19 -3 18 -8 -1 -6 7 -11 17
-11 16 0 16 2 3 23 -18 27 -15 26 -39 9z"/>
<path d="M2150 1496 c0 -9 5 -16 10 -16 6 0 10 4 10 9 0 6 -4 13 -10 16 -5 3
-10 -1 -10 -9z"/>
<path d="M1167 1460 c-4 -15 -2 -20 7 -17 7 3 18 -4 25 -15 11 -18 11 -20 -2
-15 -9 3 -21 -1 -27 -9 -10 -11 -10 -14 1 -14 8 -1 3 -7 -11 -16 l-25 -15 24
7 c19 5 23 3 18 -9 -3 -8 3 -23 14 -33 18 -16 18 -19 4 -41 -9 -12 -14 -23
-13 -23 2 0 32 30 68 67 36 37 59 63 53 59 -7 -4 -13 -2 -13 4 0 6 7 13 15 16
8 4 13 10 10 15 -3 4 -12 6 -19 3 -7 -3 -16 2 -20 11 -3 9 -11 13 -17 10 -5
-4 -17 1 -25 11 -12 14 -17 16 -21 6 -4 -10 -9 -10 -23 3 -16 15 -18 14 -23
-5z m74 -83 c-14 -14 -14 -27 0 -27 5 0 8 4 5 9 -6 9 15 21 36 21 17 0 -34
-37 -62 -44 -19 -6 -21 -5 -10 3 10 7 11 11 3 11 -20 0 -15 38 5 43 24 5 36
-3 23 -16z"/>
<path d="M1660 1425 c13 -14 26 -25 28 -25 3 0 -5 11 -18 25 -13 14 -26 25
-28 25 -3 0 5 -11 18 -25z"/>
<path d="M1088 1433 c7 -3 16 -2 19 1 4 3 -2 6 -13 5 -11 0 -14 -3 -6 -6z"/>
<path d="M1138 1416 c-20 -15 -23 -26 -8 -26 5 0 14 9 20 20 12 23 11 24 -12
6z"/>
<path d="M1376 1395 c-11 -8 -18 -17 -15 -19 2 -2 15 4 28 15 27 22 15 26 -13
4z"/>
<path d="M1855 1371 c-5 -18 -8 -19 -40 -5 -44 18 -45 18 -45 -6 0 -25 47 -51
59 -32 4 7 14 10 22 7 9 -3 26 7 42 23 l27 28 -29 2 c-22 2 -31 -3 -36 -17z"/>
<path d="M1894 1334 c-25 -26 -29 -36 -19 -44 17 -14 40 -4 60 27 16 23 14 54
-2 52 -4 -1 -22 -17 -39 -35z"/>
<path d="M1610 1315 c0 -9 -9 -15 -25 -15 -25 0 -29 -7 -19 -33 3 -9 13 -13
24 -10 12 3 17 10 12 21 -4 12 6 8 31 -11 34 -26 55 -24 23 2 -8 7 -17 23 -20
36 -7 27 -26 34 -26 10z"/>
<path d="M1418 1278 c11 -18 32 -54 47 -80 28 -51 32 -53 54 -39 12 8 11 18
-7 63 l-22 53 5 -40 c3 -22 2 -34 -1 -27 -3 6 -9 10 -14 7 -4 -3 -22 18 -40
45 -35 55 -53 69 -22 18z"/>
<path d="M1686 1293 c-14 -14 -5 -43 13 -43 11 0 22 -4 25 -9 12 -20 46 -19
57 1 13 25 4 35 -40 43 -19 3 -37 8 -41 10 -4 3 -10 2 -14 -2z"/>
<path d="M1918 1283 c-15 -15 -14 -20 24 -64 22 -27 45 -46 50 -43 5 4 23 -6
39 -22 l29 -28 17 23 c15 23 17 23 30 6 22 -31 15 -42 -33 -54 -45 -12 -46
-13 -40 -44 20 -92 20 -97 -3 -97 -30 0 -22 -10 52 -66 60 -45 61 -46 27 -40
-19 4 -43 10 -52 12 -12 4 -18 0 -18 -10 0 -27 -32 -96 -44 -96 -31 1 -37 16
-21 59 23 65 21 71 -26 71 -50 0 -79 15 -79 40 0 15 7 20 28 20 15 0 44 3 64
6 35 6 37 8 31 38 -12 65 -21 78 -43 66 -16 -9 -25 -6 -45 13 l-26 23 27 28
28 27 -37 37 c-34 34 -38 35 -53 20 -15 -15 -14 -19 12 -53 23 -30 25 -38 13
-46 -8 -5 -19 -9 -25 -9 -11 0 -54 42 -54 52 0 4 -5 19 -10 34 -10 26 -11 26
-24 8 -8 -10 -23 -19 -33 -19 -30 0 -21 -20 26 -56 115 -88 123 -244 17 -336
-70 -63 -169 -69 -252 -17 -54 33 -80 64 -98 119 -8 22 -20 41 -27 43 -10 2
-10 0 1 -7 10 -7 11 -11 3 -11 -7 0 -13 -9 -13 -20 0 -10 -9 -24 -20 -30 -17
-9 -22 -7 -30 15 -20 52 -14 65 29 65 35 0 39 3 45 31 9 45 8 49 -9 49 -8 0
-15 -5 -15 -11 0 -5 5 -7 10 -4 6 3 10 1 10 -4 0 -13 -66 -15 -74 -2 -3 5 1
29 10 54 l15 46 32 -20 c39 -23 43 -23 52 -2 4 13 -2 25 -21 40 -28 22 -28 22
-9 43 17 19 18 22 2 37 -15 16 -18 15 -40 -5 l-24 -22 -19 21 c-10 12 -36 34
-56 51 l-38 29 -20 -33 c-11 -18 -20 -36 -20 -39 0 -3 27 -20 60 -39 33 -19
58 -39 56 -44 -3 -6 -12 -34 -21 -62 l-15 -50 -51 10 c-28 6 -46 12 -40 14 6
2 11 15 11 29 0 15 5 23 13 20 6 -2 11 -15 10 -28 -2 -22 -2 -22 6 -4 5 11 10
23 10 26 1 9 -87 41 -97 35 -17 -10 -34 -146 -27 -213 18 -177 136 -340 306
-425 92 -46 160 -61 269 -62 68 0 98 5 145 24 83 33 128 60 174 103 22 20 45
37 51 37 5 0 10 6 10 13 0 7 8 17 19 24 10 6 21 24 24 40 2 15 14 53 26 83 11
30 21 65 21 77 0 26 12 30 30 8 7 -8 16 -12 21 -10 4 3 23 -7 41 -23 18 -15
58 -46 88 -67 30 -22 71 -51 89 -65 78 -57 13 5 -82 78 -161 125 -167 132
-167 197 0 30 2 55 5 55 5 0 320 -237 381 -287 l42 -34 1 118 2 117 -41 -47
c-23 -26 -48 -47 -56 -47 -27 0 -62 31 -68 60 -3 17 -10 30 -16 30 -6 0 -8 -4
-5 -10 3 -5 -1 -10 -9 -10 -10 0 -13 6 -9 17 5 12 2 15 -10 10 -9 -3 -21 1
-29 10 -11 14 -10 16 15 11 18 -3 25 -2 19 4 -5 5 -23 10 -41 10 -17 1 -36 7
-42 14 -6 8 -14 12 -18 10 -3 -3 -33 18 -66 45 -33 27 -62 49 -65 49 -4 0 -12
22 -19 49 -12 48 -95 191 -110 191 -5 0 -16 -9 -26 -20 l-18 -20 -27 25 c-24
23 -27 24 -42 8z m-138 -143 c0 -16 -17 -19 -35 -6 -24 18 -11 40 16 26 10 -6
19 -15 19 -20z m76 -61 c3 -6 22 -17 40 -25 39 -16 46 -48 13 -57 -15 -4 -23
0 -26 14 -4 13 -11 18 -23 14 -18 -6 -45 38 -35 56 8 12 22 11 31 -2z m571
-257 c67 -50 124 -96 128 -102 4 -6 -69 47 -162 117 -211 160 -217 165 -227
182 -5 7 25 -13 65 -46 41 -33 129 -101 196 -151z m-1297 126 c0 -10 5 -18 10
-18 6 0 10 9 10 19 0 29 14 33 62 20 36 -10 40 -13 23 -20 -18 -7 -18 -8 5 -8
23 -1 27 -7 36 -57 5 -30 7 -57 4 -59 -4 -2 -22 -7 -40 -10 -18 -3 -37 -8 -41
-11 -9 -5 -31 94 -23 107 3 5 -9 9 -25 9 -18 0 -31 5 -31 13 0 6 -3 23 -6 37
-4 20 -3 22 5 10 6 -8 11 -23 11 -32z m1020 -31 l0 -40 -22 19 c-13 10 -34 28
-46 39 l-24 20 34 5 c49 9 58 2 58 -43z m-717 -140 c17 -30 19 -39 8 -50 -10
-10 -19 -5 -46 26 -29 34 -36 37 -55 27 -23 -12 -21 -16 23 -73 28 -35 29 -40
14 -55 -15 -15 -18 -14 -40 6 -21 20 -24 20 -39 6 -14 -14 -17 -13 -37 15 -18
25 -26 29 -41 21 -22 -12 -40 7 -44 45 -3 23 2 27 48 40 29 8 76 17 104 19 29
2 56 6 59 10 12 11 24 1 46 -37z m675 -61 c-28 -55 -94 -143 -116 -155 -14 -7
-21 -5 -31 11 -11 18 -10 24 13 46 19 20 28 23 38 14 11 -9 21 0 48 41 50 74
54 81 42 73 -5 -3 -12 3 -15 13 -4 17 -2 18 19 9 l23 -11 -21 -41z m-24 5 c-9
-10 -26 18 -18 30 5 9 9 8 14 -7 4 -10 6 -21 4 -23z m-504 -53 c0 -22 -19 -23
-65 -4 -21 9 -37 11 -40 5 -4 -5 -11 -7 -16 -4 -12 8 -12 -2 1 -25 5 -10 32
-26 60 -35 52 -17 53 -19 42 -46 -6 -16 -12 -15 -67 2 l-60 19 -26 -30 c-30
-36 -38 -37 -74 -9 l-27 22 68 68 c38 38 72 69 76 69 5 0 8 -8 9 -17 0 -15 4
-13 21 8 20 26 21 26 59 11 26 -10 39 -21 39 -34z m385 1 c14 -17 15 -20 3
-10 -15 11 -23 8 -60 -23 -47 -41 -56 -43 -73 -19 -11 14 -6 22 34 53 49 40
61 40 96 -1z m35 20 c0 8 5 8 20 -1 21 -14 27 -38 9 -38 -5 0 -24 14 -42 32
-18 17 -22 23 -9 13 13 -11 22 -13 22 -6z m-317 -18 c3 -12 -1 -22 -10 -25
-26 -10 -33 -6 -33 19 0 31 35 35 43 6z m87 -103 c0 -13 -12 -18 -47 -23 -27
-3 -56 -8 -65 -10 -14 -2 -18 4 -18 26 0 26 4 29 33 30 17 1 43 4 57 8 27 8
40 -2 40 -31z m-151 -32 c13 -69 5 -85 -42 -84 -18 1 -26 3 -19 5 6 3 12 10
12 16 0 13 33 127 36 124 1 -1 7 -29 13 -61z m221 -56 c-8 -5 -22 -9 -30 -9
-10 0 -8 3 5 9 27 12 43 12 25 0z"/>
<path d="M1430 620 c-6 -11 -8 -20 -6 -20 3 0 10 9 16 20 6 11 8 20 6 20 -3 0
-10 -9 -16 -20z"/>
<path d="M1827 1269 c12 -12 24 -21 27 -18 2 2 -8 13 -22 23 l-27 19 22 -24z"/>
<path d="M1160 1230 c-6 -11 -8 -20 -6 -20 3 0 10 9 16 20 6 11 8 20 6 20 -3
0 -10 -9 -16 -20z"/>
<path d="M1610 1206 c0 -14 5 -26 10 -26 6 0 10 9 10 19 0 11 -4 23 -10 26 -6
4 -10 -5 -10 -19z"/>
<path d="M1990 1130 c19 -16 40 -29 45 -29 6 0 -6 13 -25 29 -19 17 -39 30
-45 30 -5 0 6 -14 25 -30z"/>
<path d="M2537 1023 c-10 -10 -8 -53 2 -53 6 0 13 5 16 10 3 6 1 10 -4 10 -6
0 -11 7 -11 16 0 10 5 14 16 10 8 -3 12 -2 9 4 -7 12 -19 13 -28 3z"/>
<path d="M2574 978 c-10 -12 -13 -18 -7 -14 9 5 11 2 7 -8 -3 -9 -12 -12 -21
-9 -11 4 -14 2 -9 -5 4 -7 14 -12 22 -12 8 0 14 -5 14 -11 0 -5 4 -8 8 -5 8 5
16 86 9 86 -2 0 -12 -10 -23 -22z"/>
<path d="M0 953 c0 -5 21 -26 48 -46 81 -64 94 -76 87 -87 -4 -6 -16 -5 -35 5
-16 8 -45 15 -65 15 -34 0 -35 -1 -35 -40 0 -36 2 -40 25 -40 15 0 40 7 56 16
29 15 30 15 20 -5 -15 -28 -14 -83 3 -106 13 -20 12 -20 -43 -20 l-56 0 0 -35
c0 -30 3 -35 26 -38 15 -2 43 3 62 12 l35 14 -9 -30 c-9 -32 -2 -85 12 -94 23
-14 5 -20 -29 -11 -29 8 -45 7 -67 -4 l-30 -14 -2 -211 c-1 -115 2 -216 6
-223 5 -7 20 -11 35 -9 27 3 27 3 9 23 -19 20 -19 21 0 63 17 40 18 48 4 88
l-14 44 36 -6 c23 -4 51 0 72 9 l36 15 -4 -47 c-4 -37 0 -53 20 -82 21 -31 22
-38 11 -54 -8 -10 -14 -27 -14 -37 0 -14 8 -18 40 -18 l41 0 -15 28 -15 29 52
-5 c43 -3 58 0 89 22 35 24 39 24 68 9 37 -18 91 -11 133 19 24 17 32 18 57 8
16 -7 52 -10 79 -8 l51 3 0 -33 c0 -50 16 -72 51 -72 29 0 31 2 24 27 -3 16
-16 44 -29 63 -20 31 -21 38 -9 60 8 15 12 44 10 72 l-4 47 31 -26 c104 -87
123 -108 115 -128 -4 -11 -8 -41 -8 -67 l-1 -48 40 0 40 0 0 43 1 42 40 -42
c27 -30 48 -43 66 -43 24 0 18 8 -53 73 -147 137 -245 222 -327 287 -124 98
-550 434 -652 515 -101 80 -115 90 -115 78z m234 -197 c37 -27 51 -40 79 -77
26 -35 27 -37 12 -72 -19 -46 -19 -87 0 -114 15 -22 15 -22 -33 -16 -34 4 -58
1 -80 -11 l-32 -16 10 26 c13 33 3 87 -21 117 -16 21 -16 27 -4 63 18 50 18
73 1 105 -14 27 -14 27 16 18 17 -4 40 -15 52 -23z m195 -157 c18 -11 55 -43
82 -71 47 -49 48 -51 34 -79 -23 -44 -19 -84 13 -121 26 -30 27 -35 15 -58
-17 -33 -16 -72 2 -96 22 -29 18 -34 -16 -24 -21 6 -43 5 -70 -4 l-38 -13 5
41 c5 33 1 48 -20 78 -22 33 -24 42 -14 68 11 34 0 73 -33 108 -17 19 -18 23
-3 58 15 36 15 77 -1 117 -9 22 2 22 44 -4z m235 -191 c82 -69 81 -66 28 -70
-26 -3 -54 -8 -62 -11 -12 -6 -15 2 -15 40 0 27 -4 56 -9 66 -13 27 2 20 58
-25z m-434 0 c26 -7 47 -6 76 4 l40 14 -4 -28 c-3 -16 4 -41 15 -60 l19 -33
-48 3 c-35 3 -57 -2 -83 -17 -31 -18 -40 -19 -89 -9 -47 10 -61 10 -89 -4
l-34 -16 4 42 c4 28 0 53 -11 74 l-16 31 30 -11 c36 -12 93 -3 111 18 7 8 19
12 28 8 9 -3 32 -11 51 -16z m522 -177 c-2 -27 1 -58 7 -69 11 -20 10 -20 -20
-10 -16 6 -46 8 -65 5 -32 -5 -34 -4 -34 24 0 17 -7 44 -16 60 -15 30 -15 31
8 23 31 -10 74 -8 95 5 27 16 28 15 25 -38z m-359 -91 c6 -13 0 -15 -37 -12
-27 3 -55 -2 -76 -13 -35 -18 -34 -22 -16 40 3 12 -2 36 -12 55 l-17 35 45 -3
c25 -2 56 1 70 6 24 9 25 8 31 -42 3 -28 9 -58 12 -66z"/>
<path d="M1636 941 c-4 -6 -14 -7 -23 -4 -11 4 -14 3 -9 -5 4 -7 13 -12 21
-12 15 0 30 18 22 26 -3 3 -8 1 -11 -5z"/>
<path d="M2549 873 l-24 -28 28 24 c25 23 32 31 24 31 -2 0 -14 -12 -28 -27z"/>
<path d="M2157 648 c-21 -22 -14 -38 16 -39 12 0 17 -3 10 -5 -29 -12 110
-102 149 -96 10 2 26 -1 36 -7 16 -9 19 -7 17 16 -1 20 -12 32 -54 54 -29 16
-68 38 -87 50 -29 18 -37 19 -52 8 -12 -10 -11 -7 3 10 11 14 14 21 6 16 -7
-4 -16 -3 -20 2 -3 5 -14 1 -24 -9z m16 -13 c-3 -9 -8 -14 -10 -11 -3 3 -2 9
2 15 9 16 15 13 8 -4z"/>
<path d="M2460 626 c0 -2 8 -10 18 -17 15 -13 16 -12 3 4 -13 16 -21 21 -21
13z"/>
<path d="M2575 600 c10 -11 20 -20 23 -20 3 0 -3 9 -13 20 -10 11 -20 20 -23
20 -3 0 3 -9 13 -20z"/>
<path d="M2503 593 c4 -6 26 -26 49 -45 23 -18 39 -28 35 -21 -4 6 -26 26 -49
45 -23 18 -39 28 -35 21z"/>
<path d="M2555 98 c-37 -39 -40 -40 -43 -19 -2 12 2 30 10 39 7 9 -7 1 -31
-18 -23 -19 -55 -44 -70 -54 l-26 -20 25 29 c14 15 19 25 13 21 -8 -4 -13 -1
-13 8 0 15 -17 21 -49 17 -7 -2 -10 2 -6 9 6 9 2 9 -14 0 -18 -9 -20 -14 -10
-26 16 -20 0 -18 -23 3 -18 16 -18 16 -12 -2 5 -13 4 -16 -5 -11 -8 5 -14 1
-18 -13 -3 -12 -10 -21 -15 -21 -5 0 -8 -7 -6 -16 4 -21 95 -29 117 -11 12 9
13 9 7 0 -5 -10 4 -13 34 -13 36 0 50 7 102 52 50 44 88 88 75 88 -1 0 -21
-19 -42 -42z m-190 -8 c3 -6 -1 -7 -9 -4 -18 7 -21 14 -7 14 6 0 13 -4 16 -10z"/>
<path d="M2190 90 c0 -5 5 -10 11 -10 5 0 7 5 4 10 -3 6 -8 10 -11 10 -2 0 -4
-4 -4 -10z"/>
</g>
</svg>
